<svg xmlns="http://www.w3.org/2000/svg" xmlns:xlink="http://www.w3.org/1999/xlink" viewBox="0,0,256,256" width="50px" height="50px"><g fill="none" fill-rule="nonzero" stroke="none" stroke-width="1" stroke-linecap="butt" stroke-linejoin="miter" stroke-miterlimit="10" stroke-dasharray="" stroke-dashoffset="0" font-family="none" font-weight="none" font-size="none" text-anchor="none" style="mix-blend-mode: normal"><g transform="scale(2.56,2.56)"><path d="M13,27c-1.10457,0 -2,0.89543 -2,2c0,1.10457 0.89543,2 2,2c1.10457,0 2,-0.89543 2,-2c0,-1.10457 -0.89543,-2 -2,-2z" fill="#ee3e54"></path><path d="M77,12c-0.55228,0 -1,0.44772 -1,1c0,0.55228 0.44772,1 1,1c0.55228,0 1,-0.44772 1,-1c0,-0.55228 -0.44772,-1 -1,-1z" fill="#f1bc19"></path><path d="M50,13c-20.43454,0 -37,16.56546 -37,37c0,20.43454 16.56546,37 37,37c20.43454,0 37,-16.56546 37,-37c0,-20.43454 -16.56546,-37 -37,-37z" fill="#a2f38c"></path><path d="M83,11c-2.20914,0 -4,1.79086 -4,4c0,2.20914 1.79086,4 4,4c2.20914,0 4,-1.79086 4,-4c0,-2.20914 -1.79086,-4 -4,-4z" fill="#f1bc19"></path><path d="M87,22c-1.10457,0 -2,0.89543 -2,2c0,1.10457 0.89543,2 2,2c1.10457,0 2,-0.89543 2,-2c0,-1.10457 -0.89543,-2 -2,-2z" fill="#ee3e54"></path><path d="M81,74c-1.10457,0 -2,0.89543 -2,2c0,1.10457 0.89543,2 2,2c1.10457,0 2,-0.89543 2,-2c0,-1.10457 -0.89543,-2 -2,-2zM15,59c-2.20914,0 -4,1.79086 -4,4c0,2.20914 1.79086,4 4,4c2.20914,0 4,-1.79086 4,-4c0,-2.20914 -1.79086,-4 -4,-4z" fill="#fbcd59"></path><path d="M25,85c-1.10457,0 -2,0.89543 -2,2c0,1.10457 0.89543,2 2,2c1.10457,0 2,-0.89543 2,-2c0,-1.10457 -0.89543,-2 -2,-2z" fill="#ee3e54"></path><path d="M18.5,51c-1.38071,0 -2.5,1.11929 -2.5,2.5c0,1.38071 1.11929,2.5 2.5,2.5c1.38071,0 2.5,-1.11929 2.5,-2.5c0,-1.38071 -1.11929,-2.5 -2.5,-2.5z" fill="#ffffff"></path><path d="M21,66c-0.55228,0 -1,0.44772 -1,1c0,0.55228 0.44772,1 1,1c0.55228,0 1,-0.44772 1,-1c0,-0.55228 -0.44772,-1 -1,-1z" fill="#f1bc19"></path><path d="M80,33c-0.55228,0 -1,0.44772 -1,1c0,0.55228 0.44772,1 1,1c0.55228,0 1,-0.44772 1,-1c0,-0.55228 -0.44772,-1 -1,-1z" fill="#ffffff"></path><path d="M51.5,25c-13,0 -23.5,10.5 -23.5,23.5c0,4.5 1.2,8.6 3.4,12.2l-3.4,10.4l10.1,-3.3c3.8,2.7 8.4,4.2 13.4,4.2c13,0 23.5,-10.5 23.5,-23.5c0,-13 -10.5,-23.5 -23.5,-23.5z" fill="#add4a1"></path><path d="M51.5,72.7c-4.9,0 -9.5,-1.4 -13.5,-4.1l-9.7,3.2c-0.3,0.1 -0.5,0 -0.7,-0.2c-0.2,-0.2 -0.3,-0.5 -0.2,-0.7l3.3,-10.1c-2.2,-3.7 -3.3,-7.9 -3.3,-12.3c0,-13.3 10.9,-24.2 24.2,-24.2c13.3,0 24.2,10.9 24.2,24.2c0,13.3 -11,24.2 -24.3,24.2zM38.1,67.1c0.1,0 0.3,0 0.4,0.1c3.8,2.7 8.3,4.1 13,4.1c12.6,0 22.8,-10.2 22.8,-22.8c0,-12.6 -10.2,-22.8 -22.8,-22.8c-12.6,0 -22.8,10.2 -22.8,22.8c0,4.2 1.1,8.3 3.3,11.8c0.1,0.2 0.1,0.4 0.1,0.6l-3,9.1l8.7,-2.9c0.1,0 0.2,0 0.3,0z" fill="#472b29"></path><path d="M66.6,37.1c-3.5,-4.5 -8.9,-7.5 -15.1,-7.5c-10.4,0 -18.9,8.5 -18.9,18.9c0,3.9 1.2,7.6 3.3,10.6l-2,6.2l6,-1.9c3.2,2.5 7.3,4.1 11.7,4.1c10.4,0 18.9,-8.5 18.9,-18.9c0,-1.1 -0.1,-2.1 -0.3,-3.2" fill="#5aba9e"></path><path d="M51.5,67.9c-4.3,0 -8.4,-1.4 -11.8,-4l-5.7,1.9c-0.2,0.1 -0.4,0 -0.5,-0.1c-0.1,-0.1 -0.2,-0.3 -0.1,-0.5l1.9,-6c-2.1,-3.2 -3.2,-6.9 -3.2,-10.7c0,-10.7 8.7,-19.4 19.4,-19.4c6.1,0 11.8,2.8 15.5,7.7c0.2,0.2 0.1,0.5 -0.1,0.7c-0.2,0.2 -0.5,0.1 -0.7,-0.1c-3.5,-4.6 -8.9,-7.3 -14.7,-7.3c-10.1,0 -18.4,8.3 -18.4,18.4c0,3.7 1.1,7.3 3.2,10.3c0.1,0.1 0.1,0.3 0.1,0.4l-1.7,5.3l5,-1.6c0.2,-0.1 0.3,0 0.5,0.1c3.3,2.6 7.2,4 11.4,4c10.1,0 18.4,-8.3 18.4,-18.4c0,-1 -0.1,-2.1 -0.3,-3.1c0,-0.3 0.1,-0.5 0.4,-0.6c0.3,0 0.5,0.1 0.6,0.4c0.2,1.1 0.3,2.2 0.3,3.2c-0.1,10.7 -8.8,19.4 -19.5,19.4z" fill="#472b29"></path><g><path d="M69.5,42.6c-0.4,-1.1 -0.9,-2.2 -1.4,-3.3" fill="#5aba9e"></path><path d="M69.5,43.1c-0.2,0 -0.4,-0.1 -0.5,-0.3c-0.4,-1.1 -0.8,-2.2 -1.4,-3.2c-0.1,-0.2 0,-0.5 0.2,-0.7c0.2,-0.1 0.5,0 0.7,0.2c0.6,1.1 1.1,2.2 1.5,3.3c0.1,0.3 -0.1,0.5 -0.3,0.6c-0.1,0.1 -0.2,0.1 -0.2,0.1z" fill="#472b29"></path></g><g><path d="M59.1,58.7c-1.4,0 -3.4,-0.5 -6.3,-1.7c-3.8,-1.5 -7.6,-4.6 -10.7,-8.8l-0.2,-0.2c-0.9,-1.2 -2.5,-3.6 -2.5,-6c-0.1,-1.8 0.7,-3.6 2.2,-4.8c0.5,-0.4 1.2,-0.6 1.8,-0.6h0.2h0.7c0,0 0.1,0 0.2,0c0.1,0 0.1,0 0.2,0c0.1,0 0.2,0.1 0.3,0.2c0.2,0.2 0.3,0.4 0.4,0.7l0.8,1.7c0.6,1.3 1.1,2.5 1.2,2.6c0.1,0.1 0.3,0.5 0.1,0.9c-0.2,0.3 -0.4,0.6 -0.6,0.8c-0.1,0.2 -0.2,0.3 -0.3,0.4l-0.3,0.1c-0.1,0.1 -0.4,0.4 -0.6,0.6c-0.5,0.5 -0.6,1.1 -0.3,1.6c1,1.6 2.2,3 3.7,4.2c1.5,1.3 3.2,2.3 5.1,3l0.2,0.1c0.2,0.1 0.5,0.2 0.8,0.2c0.5,0 0.9,-0.2 1.2,-0.5c0.5,-0.6 1,-1.2 1.5,-1.8l0.3,-0.4c0.1,-0.1 0.3,-0.4 0.7,-0.4c0.1,0 0.3,0 0.4,0.1c0.5,0.2 3.3,1.4 4.3,1.9l0.4,0.2l0.5,0.2c0.2,0.1 0.3,0.2 0.3,0.4c0,0.9 -0.1,1.7 -0.4,2.5c-0.5,1.2 -2.5,2.4 -4.1,2.7c-0.3,0.1 -0.7,0.1 -1.2,0.1z" fill="#fdfcee"></path><path d="M44.4,37.1c0.1,0 0.1,0 0.2,0c0.1,0.1 0.2,0.3 0.3,0.5l0.6,1.3c0.8,1.7 1.3,3 1.4,3.2c0.1,0.2 0.1,0.3 0.1,0.4c-0.1,0.3 -0.3,0.5 -0.5,0.7l-0.1,0.1c-0.1,0.1 -0.3,0.3 -0.4,0.4c-0.1,0.1 -0.4,0.4 -0.6,0.6c-0.7,0.6 -0.8,1.5 -0.3,2.2c1,1.6 2.3,3.1 3.8,4.3c1.5,1.3 3.3,2.3 5.2,3l0.2,0.1c0.3,0.1 0.6,0.2 0.9,0.2c0.6,0 1.2,-0.2 1.6,-0.6c0.5,-0.6 1.1,-1.2 1.5,-1.8l0.3,-0.4c0.1,-0.1 0.2,-0.2 0.3,-0.2c0.1,0 0.2,0 0.3,0.1c0.5,0.2 3.2,1.4 4.3,1.9l0.4,0.2l0.5,0.2c0,0.8 -0.1,1.6 -0.4,2.3c-0.4,1.1 -2.2,2.1 -3.7,2.4c-0.3,0.1 -0.6,0.1 -1.1,0.1c-1,0 -2.7,-0.3 -6.2,-1.6c-3.7,-1.4 -7.5,-4.5 -10.5,-8.6l-0.2,-0.2c-0.9,-1.2 -2.4,-3.4 -2.4,-5.7c-0.1,-1.7 0.7,-3.3 2,-4.5c0.4,-0.3 1,-0.5 1.5,-0.5h0.1c0.3,0 0.5,0 0.7,0c0,-0.1 0.1,-0.1 0.2,-0.1M44.4,36.1c-0.1,0 -0.1,0 -0.2,0h-0.6c-0.1,0 -0.1,0 -0.2,0c-0.8,0 -1.5,0.3 -2.1,0.7v0c-1.6,1.3 -2.4,3.3 -2.4,5.2c0,2.5 1.7,5 2.7,6.3l0.2,0.2c3.1,4.2 7,7.4 10.9,8.9c3,1.2 5.1,1.7 6.5,1.7c0.6,0 1,-0.1 1.3,-0.1c1.7,-0.3 3.9,-1.5 4.4,-3c0.3,-0.8 0.5,-1.8 0.5,-2.7c0,-0.4 -0.3,-0.7 -0.6,-0.9l-0.5,-0.2l-0.4,-0.2c-0.9,-0.4 -3.8,-1.8 -4.4,-2c-0.1,0 -0.3,-0.1 -0.6,-0.1c-0.7,0 -1,0.5 -1.1,0.6l-0.3,0.4c-0.5,0.6 -0.9,1.2 -1.4,1.7c-0.2,0.2 -0.5,0.3 -0.9,0.3c-0.2,0 -0.4,0 -0.5,-0.1l-0.2,-0.1c-1.8,-0.7 -3.5,-1.6 -4.9,-2.9c-1.4,-1.2 -2.6,-2.6 -3.6,-4.1c-0.2,-0.3 -0.1,-0.7 0.1,-0.9l0.1,-0.1c0.2,-0.2 0.4,-0.4 0.5,-0.6l0.1,-0.1c0.1,-0.1 0.2,-0.2 0.3,-0.3v0c0.3,-0.3 0.5,-0.6 0.7,-0.9c0.2,-0.3 0.3,-0.8 -0.1,-1.4c-0.1,-0.2 -0.6,-1.3 -1.2,-2.6l-0.2,-0.5l-0.6,-1.3c-0.1,-0.3 -0.3,-0.6 -0.5,-0.8c-0.2,-0.2 -0.4,-0.3 -0.6,-0.3c-0.1,0.2 -0.2,0.2 -0.2,0.2z" fill="#472b29"></path></g></g></g></svg>