<svg xmlns="http://www.w3.org/2000/svg" xmlns:xlink="http://www.w3.org/1999/xlink" viewBox="0,0,256,256" width="50px" height="50px"><g fill="none" fill-rule="nonzero" stroke="none" stroke-width="1" stroke-linecap="butt" stroke-linejoin="miter" stroke-miterlimit="10" stroke-dasharray="" stroke-dashoffset="0" font-family="none" font-weight="none" font-size="none" text-anchor="none" style="mix-blend-mode: normal"><g transform="scale(2.56,2.56)"><circle cx="13" cy="29" r="2" fill="#ee3e54"></circle><circle cx="77" cy="13" r="1" fill="#f1bc19"></circle><circle cx="50" cy="50" r="37" fill="#d785fd"></circle><circle cx="83" cy="15" r="4" fill="#f1bc19"></circle><circle cx="87" cy="24" r="2" fill="#ee3e54"></circle><circle cx="81" cy="76" r="2" fill="#fbcd59"></circle><circle cx="15" cy="63" r="4" fill="#fbcd59"></circle><circle cx="25" cy="87" r="2" fill="#ee3e54"></circle><circle cx="18.5" cy="53.5" r="2.5" fill="#ffffff"></circle><circle cx="21" cy="67" r="1" fill="#f1bc19"></circle><circle cx="80" cy="34" r="1" fill="#ffffff"></circle><path d="M72.3,33.7v32.6c0,3.31 -2.69,6 -6,6h-32.6c-3.31,0 -6,-2.69 -6,-6v-32.6c0,-3.31 2.69,-6 6,-6h32.6c3.31,0 6,2.69 6,6z" fill="#3231c7"></path><path d="M72.3,48.04v18.26c0,3.31 -2.69,6 -6,6h-32.6c-3.31,0 -6,-2.69 -6,-6v-32.6c0,-3.31 2.69,-6 6,-6h18.26c8.64,4.59 15.75,11.7 20.34,20.34z" fill="#7228ad"></path><path d="M70,71c0,0.01 0,0.01 0,0.02c-1.02,0.8 -2.3,1.28 -3.7,1.28h-32.6c-3.31,0 -6,-2.69 -6,-6v-32.6c0,-1.4 0.48,-2.68 1.28,-3.7c0.01,0 0.01,0 0.02,0c22.64,0 41,18.36 41,41z" fill="#b11e93"></path><path d="M62,71c0,0.44 -0.01,0.87 -0.03,1.3h-28.27c-3.31,0 -6,-2.69 -6,-6v-28.27c0.43,-0.02 0.86,-0.03 1.3,-0.03c18.23,0 33,14.77 33,33z" fill="#db1a58"></path><path d="M54,71c0,0.43 -0.01,0.87 -0.03,1.3h-20.27c-3.31,0 -6,-2.69 -6,-6v-20.27c0.43,-0.02 0.87,-0.03 1.3,-0.03c13.81,0 25,11.19 25,25z" fill="#e4273e"></path><path d="M47,71c0,0.44 -0.02,0.87 -0.05,1.3h-13.25c-3.31,0 -6,-2.69 -6,-6v-13.25c0.43,-0.03 0.86,-0.05 1.3,-0.05c9.94,0 18,8.06 18,18z" fill="#f47c22"></path><path d="M41,71c0,0.44 -0.02,0.87 -0.07,1.3h-7.23c-3.31,0 -6,-2.69 -6,-6v-7.23c0.43,-0.05 0.86,-0.07 1.3,-0.07c6.63,0 12,5.37 12,12z" fill="#ef9922"></path><path d="M66.3,73h-32.6c-3.694,0 -6.7,-3.006 -6.7,-6.7v-32.6c0,-3.694 3.006,-6.7 6.7,-6.7h32.6c3.694,0 6.7,3.006 6.7,6.7v32.6c0,3.694 -3.006,6.7 -6.7,6.7zM33.7,28.4c-2.923,0 -5.3,2.377 -5.3,5.3v32.6c0,2.922 2.377,5.3 5.3,5.3h32.6c2.923,0 5.3,-2.377 5.3,-5.3v-32.6c0,-2.922 -2.377,-5.3 -5.3,-5.3z" fill="#472b29"></path><g><path d="M49.99,65.45c-3.982,0 -5.464,-0.011 -6.978,-0.08c-1.388,-0.062 -2.469,-0.271 -3.505,-0.677c-1.006,-0.388 -1.793,-0.899 -2.553,-1.659c-0.753,-0.754 -1.265,-1.542 -1.658,-2.553c-0.395,-1.007 -0.604,-2.088 -0.677,-3.505c-0.069,-1.525 -0.08,-3.006 -0.08,-6.977c0,-3.964 0.011,-5.442 0.08,-6.968c0.062,-1.388 0.271,-2.468 0.676,-3.504c0.394,-1.021 0.905,-1.808 1.659,-2.553c0.754,-0.753 1.541,-1.265 2.554,-1.659c1.035,-0.405 2.116,-0.613 3.504,-0.677c1.565,-0.07 3.065,-0.09 6.978,-0.09c3.914,0 5.411,0.02 6.967,0.09c1.388,0.063 2.469,0.271 3.506,0.677c1.021,0.394 1.807,0.905 2.552,1.659c0.747,0.738 1.262,1.524 1.669,2.553c0.397,1.046 0.604,2.128 0.667,3.504c0.07,1.58 0.09,3.078 0.09,6.967c0,3.897 -0.02,5.397 -0.09,6.978c-0.063,1.377 -0.269,2.458 -0.667,3.505c-0.407,1.018 -0.923,1.806 -1.669,2.552c-0.743,0.752 -1.527,1.264 -2.543,1.659c-1.049,0.405 -2.133,0.614 -3.515,0.676c-1.514,0.071 -2.993,0.082 -6.967,0.082zM48.68,37.45c-2.752,0 -4.263,0.021 -5.575,0.079c-1.342,0.062 -2.082,0.287 -2.577,0.476c-0.617,0.242 -1.059,0.53 -1.525,0.998c-0.467,0.466 -0.755,0.905 -0.993,1.516c-0.191,0.498 -0.417,1.24 -0.479,2.585c-0.068,1.506 -0.079,2.895 -0.079,6.887c0,4 0.011,5.39 0.079,6.895c0.062,1.336 0.287,2.076 0.477,2.572c0.239,0.619 0.526,1.061 0.99,1.525c0.473,0.465 0.916,0.752 1.53,0.994c0.479,0.188 1.204,0.411 2.576,0.475c1.56,0.07 3.04,0.089 6.888,0.089c3.856,0 5.338,-0.019 6.895,-0.089c1.405,-0.065 2.147,-0.303 2.583,-0.477c0.604,-0.234 1.044,-0.518 1.514,-0.978c0.466,-0.476 0.755,-0.919 1.001,-1.534c0.186,-0.487 0.405,-1.217 0.469,-2.575c0.069,-1.573 0.089,-3.055 0.089,-6.897c0,-3.835 -0.02,-5.315 -0.089,-6.886c-0.063,-1.356 -0.282,-2.086 -0.467,-2.57c-0.239,-0.62 -0.525,-1.061 -0.99,-1.525c-0.498,-0.49 -0.903,-0.75 -1.548,-0.997c-0.464,-0.185 -1.178,-0.408 -2.56,-0.473c-1.535,-0.07 -3.018,-0.089 -6.896,-0.089h-1.313z" fill="#ffffff"></path><path d="M49.99,34.8c3.909,0 5.405,0.019 6.956,0.09c1.359,0.061 2.415,0.265 3.428,0.66c0.985,0.38 1.744,0.873 2.467,1.605c0.719,0.71 1.216,1.47 1.608,2.459c0.389,1.024 0.59,2.081 0.652,3.429c0.07,1.576 0.089,3.072 0.089,6.957c0,3.893 -0.019,5.39 -0.089,6.966c-0.062,1.35 -0.263,2.407 -0.648,3.42c-0.396,0.989 -0.894,1.751 -1.617,2.474c-0.716,0.725 -1.473,1.219 -2.453,1.6c-1.023,0.395 -2.083,0.599 -3.436,0.66c-1.509,0.069 -2.986,0.08 -6.956,0.08c-3.978,0 -5.458,-0.011 -6.967,-0.08c-1.359,-0.061 -2.415,-0.264 -3.426,-0.66c-0.971,-0.375 -1.731,-0.869 -2.465,-1.602c-0.728,-0.729 -1.222,-1.489 -1.603,-2.468c-0.384,-0.981 -0.587,-2.038 -0.659,-3.423c-0.069,-1.522 -0.08,-3.001 -0.08,-6.968c0,-3.959 0.011,-5.436 0.08,-6.957c0.061,-1.359 0.264,-2.415 0.66,-3.427c0.38,-0.985 0.873,-1.745 1.603,-2.465c0.727,-0.727 1.488,-1.221 2.467,-1.602c1.009,-0.394 2.065,-0.598 3.424,-0.66c1.56,-0.069 3.057,-0.088 6.965,-0.088M49.99,62.79c3.861,0 5.345,-0.019 6.907,-0.089c1.443,-0.067 2.211,-0.314 2.658,-0.493c0.641,-0.248 1.105,-0.547 1.609,-1.041c0.487,-0.497 0.791,-0.964 1.053,-1.62c0.191,-0.501 0.419,-1.255 0.483,-2.649c0.07,-1.576 0.089,-3.061 0.089,-6.908c0,-3.839 -0.019,-5.322 -0.089,-6.898c-0.065,-1.391 -0.292,-2.145 -0.483,-2.65c-0.249,-0.645 -0.562,-1.126 -1.049,-1.614c-0.518,-0.509 -0.96,-0.794 -1.625,-1.048c-0.486,-0.194 -1.225,-0.425 -2.645,-0.492c-1.539,-0.07 -3.024,-0.089 -6.907,-0.089h-1.311c-2.756,0 -4.27,0.021 -5.588,0.079c-1.376,0.064 -2.141,0.296 -2.658,0.493c-0.641,0.251 -1.122,0.566 -1.609,1.053c-0.487,0.486 -0.801,0.965 -1.051,1.605c-0.197,0.513 -0.431,1.28 -0.495,2.662c-0.069,1.511 -0.08,2.901 -0.08,6.898c0,4.004 0.01,5.397 0.08,6.907c0.064,1.372 0.297,2.136 0.493,2.65c0.252,0.654 0.556,1.121 1.05,1.615c0.491,0.482 0.973,0.795 1.613,1.046c0.496,0.194 1.247,0.426 2.656,0.492c1.564,0.072 3.047,0.091 6.899,0.091M49.99,34.3c-3.991,0 -5.454,0.021 -6.989,0.09c-1.417,0.064 -2.522,0.279 -3.583,0.693c-1.047,0.408 -1.86,0.937 -2.639,1.714c-0.78,0.771 -1.31,1.585 -1.716,2.639c-0.416,1.062 -0.63,2.168 -0.693,3.584c-0.069,1.537 -0.08,3.019 -0.08,6.979c0,3.969 0.011,5.452 0.08,6.99c0.075,1.444 0.289,2.549 0.693,3.583c0.407,1.045 0.937,1.859 1.715,2.639c0.786,0.786 1.601,1.314 2.639,1.715c1.062,0.416 2.168,0.63 3.584,0.693c1.537,0.07 3.02,0.081 6.989,0.081c3.96,0 5.441,-0.01 6.979,-0.081c1.41,-0.063 2.519,-0.277 3.594,-0.693c1.051,-0.409 1.861,-0.938 2.629,-1.715c0.771,-0.771 1.303,-1.583 1.726,-2.64c0.409,-1.075 0.619,-2.18 0.684,-3.583c0.068,-1.536 0.09,-3 0.09,-6.989c0,-3.979 -0.021,-5.443 -0.09,-6.979c-0.064,-1.402 -0.274,-2.506 -0.685,-3.585c-0.421,-1.062 -0.953,-1.876 -1.724,-2.637c-0.771,-0.78 -1.584,-1.309 -2.639,-1.716c-1.063,-0.416 -2.169,-0.629 -3.585,-0.693c-1.526,-0.068 -2.987,-0.089 -6.979,-0.089zM49.99,62.29c-3.842,0 -5.32,-0.019 -6.876,-0.089c-1.336,-0.062 -2.036,-0.278 -2.496,-0.458c-0.582,-0.229 -1,-0.5 -1.445,-0.938c-0.441,-0.441 -0.705,-0.846 -0.934,-1.438c-0.182,-0.476 -0.399,-1.195 -0.46,-2.494c-0.068,-1.492 -0.079,-2.881 -0.079,-6.884c0,-3.995 0.011,-5.382 0.079,-6.875c0.061,-1.308 0.278,-2.026 0.462,-2.506c0.225,-0.574 0.497,-0.99 0.938,-1.43c0.44,-0.441 0.856,-0.713 1.438,-0.941c0.473,-0.18 1.192,-0.399 2.499,-0.459c1.304,-0.056 2.814,-0.078 5.564,-0.078h1.311c3.876,0 5.355,0.019 6.885,0.088c1.346,0.063 2.033,0.277 2.482,0.457c0.612,0.234 0.99,0.478 1.46,0.94c0.436,0.436 0.708,0.854 0.934,1.438c0.176,0.463 0.389,1.17 0.45,2.493c0.069,1.557 0.089,3.036 0.089,6.875c0,3.847 -0.02,5.328 -0.089,6.886c-0.062,1.322 -0.273,2.027 -0.451,2.494c-0.234,0.586 -0.501,0.996 -0.943,1.448c-0.445,0.437 -0.851,0.7 -1.432,0.924c-0.424,0.169 -1.13,0.396 -2.501,0.459c-1.555,0.069 -3.035,0.088 -6.885,0.088z" fill="#472b29"></path></g><path d="M58.5,43.25c-0.965,0 -1.75,-0.785 -1.75,-1.75c0,-0.965 0.785,-1.75 1.75,-1.75h0.001c0.467,0 0.906,0.182 1.236,0.512c0.331,0.331 0.513,0.77 0.513,1.237c0,0.966 -0.785,1.751 -1.75,1.751z" fill="#ffffff"></path><path d="M58.5,40c0.828,0 1.5,0.672 1.5,1.5c0,0.828 -0.672,1.5 -1.5,1.5c-0.828,0 -1.5,-0.672 -1.5,-1.5c0,-0.828 0.672,-1.499 1.5,-1.5v0M58.5,39.5v0c-1.103,0.001 -2,0.898 -2,2c0,1.103 0.897,2 2,2c1.103,0 2,-0.897 2,-2c0,-1.103 -0.897,-2 -2,-2z" fill="#472b29"></path><path d="M49.988,41.504c-4.695,0 -8.501,3.806 -8.501,8.501c0,4.695 3.806,8.499 8.501,8.499c4.695,0 8.499,-3.805 8.499,-8.499c0,-4.694 -3.805,-8.501 -8.499,-8.501zM49.988,44.505c3.037,0 5.5,2.462 5.5,5.5c0,3.037 -2.463,5.5 -5.5,5.5c-3.038,0 -5.5,-2.463 -5.5,-5.5c0,-3.038 2.462,-5.5 5.5,-5.5z" fill="#ffffff"></path><path d="M49.988,58.754c-4.825,0 -8.751,-3.925 -8.751,-8.75c0,-4.825 3.926,-8.75 8.751,-8.75c4.824,0 8.749,3.925 8.749,8.75c0,4.825 -3.925,8.75 -8.749,8.75zM49.988,41.754c-4.55,0 -8.251,3.701 -8.251,8.25c0,4.549 3.701,8.25 8.251,8.25c4.549,0 8.249,-3.701 8.249,-8.25c0,-4.549 -3.7,-8.25 -8.249,-8.25zM49.988,55.754c-3.171,0 -5.75,-2.58 -5.75,-5.75c0,-3.17 2.579,-5.75 5.75,-5.75c3.171,0 5.75,2.58 5.75,5.75c0,3.17 -2.579,5.75 -5.75,5.75zM49.988,44.754c-2.895,0 -5.25,2.355 -5.25,5.25c0,2.895 2.355,5.25 5.25,5.25c2.895,0 5.25,-2.355 5.25,-5.25c0,-2.895 -2.355,-5.25 -5.25,-5.25z" fill="#472b29"></path></g></g></svg>